<svg width="22" height="22" fill="none" xmlns="http://www.w3.org/2000/svg"><path d="M11.001 0c-6.075 0-11 4.925-11 11s4.925 11 11 11 11-4.925 11-11S17.076 0 11 0zm5.809 16.05l-.881.881c-.157.157-.618.255-.633.255a10.395 10.395 0 01-7.44-3.041 10.407 10.407 0 01-3.043-7.466c0-.001.101-.449.258-.604l.881-.881c.322-.324.941-.47 1.375-.325l.185.062c.433.145.887.623 1.006 1.063l.443 1.626c.12.442-.041 1.07-.364 1.393L8.01 9.6a6.247 6.247 0 004.393 4.394l.588-.589c.323-.323.951-.484 1.392-.365l1.626.444c.44.122.919.573 1.064 1.005l.061.188c.144.432-.001 1.051-.323 1.372z" fill="#000"/></svg>