<svg width="66" height="66" viewBox="0 0 66 66" fill="none" xmlns="http://www.w3.org/2000/svg">
<path d="M56.3276 52.8494H9.67222C9.23461 52.8494 8.81493 52.6756 8.50549 52.3662C8.19606 52.0567 8.02222 51.6371 8.02222 51.1994V13.0877C8.02222 12.6501 8.19606 12.2305 8.50549 11.921C8.81493 11.6116 9.23461 11.4377 9.67222 11.4377H56.3276C56.7652 11.4377 57.1849 11.6116 57.4943 11.921C57.8038 12.2305 57.9776 12.6501 57.9776 13.0877V51.1994C57.9776 51.6371 57.8038 52.0567 57.4943 52.3662C57.1849 52.6756 56.7652 52.8494 56.3276 52.8494ZM11.3222 49.5494H54.6776V14.7377H11.3222V49.5494Z" fill="white"/>
<path d="M16.5001 18.1499C16.0625 18.1499 15.6428 17.9761 15.3334 17.6666C15.0239 17.3572 14.8501 16.9375 14.8501 16.4999V9.67222C14.8501 9.23461 15.0239 8.81493 15.3334 8.50549C15.6428 8.19606 16.0625 8.02222 16.5001 8.02222C16.9377 8.02222 17.3574 8.19606 17.6668 8.50549C17.9763 8.81493 18.1501 9.23461 18.1501 9.67222V16.4999C18.1501 16.9375 17.9763 17.3572 17.6668 17.6666C17.3574 17.9761 16.9377 18.1499 16.5001 18.1499Z" fill="white"/>
<path d="M49.5001 18.1499C49.0625 18.1499 48.6428 17.9761 48.3334 17.6666C48.0239 17.3572 47.8501 16.9375 47.8501 16.4999V9.67222C47.8501 9.23461 48.0239 8.81493 48.3334 8.50549C48.6428 8.19606 49.0625 8.02222 49.5001 8.02222C49.9377 8.02222 50.3574 8.19606 50.6668 8.50549C50.9763 8.81493 51.1501 9.23461 51.1501 9.67222V16.4999C51.1501 16.9375 50.9763 17.3572 50.6668 17.6666C50.3574 17.9761 49.9377 18.1499 49.5001 18.1499Z" fill="white"/>
<path d="M53.4599 57.9778H12.5597C11.3568 57.9761 10.2037 57.4974 9.35315 56.6469C8.50258 55.7963 8.02396 54.6432 8.02222 53.4403V49.5001C8.02222 49.0625 8.19606 48.6428 8.50549 48.3334C8.81493 48.0239 9.23461 47.8501 9.67222 47.8501C10.1098 47.8501 10.5295 48.0239 10.8389 48.3334C11.1484 48.6428 11.3222 49.0625 11.3222 49.5001V53.4403C11.3222 53.7685 11.4526 54.0833 11.6847 54.3153C11.9167 54.5474 12.2315 54.6778 12.5597 54.6778H53.4599C53.7876 54.6769 54.1015 54.5462 54.3328 54.3142C54.5642 54.0822 54.6941 53.7679 54.6941 53.4403V49.5001C54.6941 49.0625 54.868 48.6428 55.1774 48.3334C55.4868 48.0239 55.9065 47.8501 56.3441 47.8501C56.7817 47.8501 57.2014 48.0239 57.5108 48.3334C57.8203 48.6428 57.9941 49.0625 57.9941 49.5001V53.4403C57.9924 54.6426 57.5142 55.7952 56.6644 56.6457C55.8145 57.4962 54.6622 57.9752 53.4599 57.9778Z" fill="white"/>
<path d="M16.5 26.4001C16.3892 26.401 16.2785 26.3899 16.17 26.3671C16.065 26.3463 15.9622 26.3154 15.8631 26.2747C15.7628 26.2334 15.6666 26.1825 15.576 26.1229C15.4859 26.0631 15.4019 25.9945 15.3252 25.9183C15.2498 25.8409 15.1813 25.7569 15.1206 25.6675C15.0622 25.5761 15.0115 25.4801 14.9688 25.3804C14.9308 25.2832 14.9021 25.1827 14.883 25.0801C14.8372 24.8625 14.8372 24.6377 14.883 24.4201C14.9038 24.315 14.9347 24.2122 14.9754 24.1132C15.0181 24.0135 15.0688 23.9175 15.1272 23.8261C15.2467 23.645 15.4016 23.4901 15.5826 23.3707C15.6732 23.311 15.7694 23.2602 15.8697 23.2189C16.2734 23.052 16.7267 23.052 17.1303 23.2189C17.2293 23.2609 17.3242 23.3117 17.4141 23.3707C17.5952 23.4912 17.751 23.6459 17.8728 23.8261C17.9312 23.9175 17.982 24.0135 18.0246 24.1132C18.0653 24.2122 18.0963 24.315 18.117 24.4201C18.1629 24.6377 18.1629 24.8625 18.117 25.0801C18.0963 25.1851 18.0653 25.2879 18.0246 25.387C17.982 25.4867 17.9312 25.5827 17.8728 25.6741C17.751 25.8543 17.5952 26.0089 17.4141 26.1295C17.3242 26.1884 17.2293 26.2392 17.1303 26.2813C17.0313 26.322 16.9285 26.3529 16.8234 26.3737C16.7169 26.3939 16.6085 26.4027 16.5 26.4001Z" fill="white"/>
<path d="M22.0011 26.4C21.8902 26.4011 21.7796 26.39 21.6711 26.367C21.5651 26.3458 21.4612 26.3149 21.3609 26.2746C21.262 26.2325 21.167 26.1817 21.0771 26.1228C20.987 26.0629 20.903 25.9944 20.8263 25.9182C20.7509 25.8407 20.6824 25.7568 20.6217 25.6674C20.5621 25.5767 20.5113 25.4806 20.4699 25.3803C20.4281 25.2813 20.396 25.1785 20.3742 25.0734C20.3329 24.8553 20.3329 24.6314 20.3742 24.4134C20.396 24.3082 20.4281 24.2054 20.4699 24.1065C20.5113 24.0062 20.5621 23.91 20.6217 23.8194C20.7411 23.6383 20.8961 23.4834 21.0771 23.364C21.167 23.305 21.262 23.2542 21.3609 23.2122C21.4612 23.1719 21.5651 23.1409 21.6711 23.1198C21.8889 23.0753 22.1133 23.0753 22.3311 23.1198C22.4361 23.141 22.5388 23.1719 22.638 23.2122C22.7369 23.2542 22.8319 23.305 22.9218 23.364C23.0125 23.423 23.0966 23.4916 23.1726 23.5686C23.3261 23.7242 23.4472 23.9088 23.5288 24.1116C23.6103 24.3144 23.6508 24.5314 23.6478 24.75C23.6482 24.8606 23.6382 24.9711 23.6181 25.08C23.5963 25.1851 23.5642 25.2879 23.5224 25.3869C23.481 25.4872 23.4302 25.5833 23.3706 25.674C23.3108 25.7641 23.2423 25.8481 23.166 25.9248C23.09 26.0018 23.0059 26.0704 22.9152 26.1294C22.8253 26.1883 22.7303 26.2391 22.6314 26.2812C22.5322 26.3214 22.4295 26.3524 22.3245 26.3736C22.2179 26.3936 22.1095 26.4024 22.0011 26.4Z" fill="white"/>
<path d="M27.4989 26.4C27.3881 26.4012 27.2774 26.3901 27.1689 26.367C27.0628 26.3463 26.9589 26.3153 26.8587 26.2746C26.7598 26.2326 26.6648 26.1818 26.5749 26.1228C26.485 26.0628 26.401 25.9943 26.3241 25.9182C26.0173 25.6071 25.8464 25.187 25.8489 24.75C25.848 24.6391 25.8591 24.5285 25.8819 24.42C25.9027 24.315 25.9336 24.2122 25.9743 24.1131C26.0169 24.0127 26.0688 23.9166 26.1294 23.826C26.1901 23.7366 26.2586 23.6526 26.334 23.5752C26.41 23.4982 26.4941 23.4296 26.5848 23.3706C26.6747 23.3117 26.7697 23.2609 26.8686 23.2188C26.9688 23.1781 27.0727 23.1471 27.1788 23.1264C27.3965 23.0812 27.6212 23.0812 27.8388 23.1264C27.9449 23.1476 28.0487 23.1785 28.149 23.2188C28.248 23.2609 28.3429 23.3117 28.4328 23.3706C28.5229 23.4304 28.6069 23.499 28.6836 23.5752C28.7591 23.6526 28.8275 23.7366 28.8882 23.826C28.9466 23.9174 28.9974 24.0134 29.04 24.1131C29.0807 24.2122 29.1117 24.315 29.1324 24.42C29.1553 24.5285 29.1664 24.6391 29.1654 24.75C29.1658 24.9668 29.1235 25.1816 29.0408 25.3821C28.9581 25.5825 28.8368 25.7647 28.6836 25.9182C28.6061 25.9935 28.5221 26.0619 28.4328 26.1228C28.3429 26.1818 28.248 26.2326 28.149 26.2746C28.0487 26.3149 27.9449 26.3458 27.8388 26.367C27.7271 26.3908 27.6131 26.4019 27.4989 26.4Z" fill="white"/>
<path d="M43.9987 26.4C43.8878 26.4012 43.7771 26.3901 43.6687 26.367C43.5626 26.3463 43.4587 26.3154 43.3585 26.2746C43.2596 26.2326 43.1646 26.1818 43.0747 26.1228C42.984 26.0638 42.8999 25.9952 42.8239 25.9182C42.7476 25.8407 42.678 25.7568 42.616 25.6674C42.5576 25.5761 42.5068 25.48 42.4642 25.3803C42.4235 25.2813 42.3926 25.1785 42.3718 25.0734C42.3259 24.8558 42.3259 24.6311 42.3718 24.4134C42.3926 24.3084 42.4235 24.2056 42.4642 24.1065C42.5068 24.0069 42.5576 23.9108 42.616 23.8194C42.678 23.7301 42.7476 23.6462 42.8239 23.5686C42.8999 23.4916 42.984 23.4231 43.0747 23.364C43.1646 23.3051 43.2596 23.2543 43.3585 23.2122C43.4587 23.1715 43.5626 23.1406 43.6687 23.1198C43.881 23.0769 44.0998 23.0769 44.3122 23.1198C44.4172 23.1406 44.52 23.1716 44.6191 23.2122C44.7194 23.2535 44.8156 23.3044 44.9062 23.364C45.0872 23.4835 45.2421 23.6384 45.3616 23.8194C45.4212 23.9101 45.472 24.0063 45.5134 24.1065C45.5552 24.2055 45.5873 24.3083 45.6091 24.4134C45.6503 24.6315 45.6503 24.8554 45.6091 25.0734C45.5873 25.1786 45.5552 25.2814 45.5134 25.3803C45.472 25.4806 45.4212 25.5768 45.3616 25.6674C45.2421 25.8485 45.0872 26.0034 44.9062 26.1228C44.8156 26.1825 44.7194 26.2333 44.6191 26.2746C44.52 26.3153 44.4172 26.3463 44.3122 26.367C44.2091 26.3889 44.1041 26.4 43.9987 26.4Z" fill="white"/>
<path d="M38.5011 26.4001C38.2843 26.4005 38.0695 26.3581 37.869 26.2754C37.6686 26.1928 37.4864 26.0714 37.3329 25.9183C37.2566 25.8404 37.1881 25.7553 37.1283 25.6642C37.0681 25.5751 37.0172 25.48 36.9765 25.3804C36.9347 25.2814 36.9026 25.1787 36.8808 25.0735C36.8607 24.9646 36.8507 24.8542 36.8511 24.7435C36.8511 24.4723 36.918 24.2052 37.0459 23.966C37.1737 23.7268 37.3585 23.5228 37.584 23.3721C37.8095 23.2213 38.0686 23.1285 38.3385 23.1018C38.6084 23.0751 38.8807 23.1153 39.1314 23.2189C39.2303 23.2609 39.3253 23.3117 39.4152 23.3707C39.5059 23.4297 39.59 23.4983 39.666 23.5753C39.7422 23.652 39.8108 23.736 39.8706 23.8261C39.9302 23.9168 39.981 24.0129 40.0224 24.1132C40.0642 24.2121 40.0962 24.3149 40.1181 24.4201C40.1639 24.6377 40.1639 24.8625 40.1181 25.0801C40.0962 25.1853 40.0642 25.288 40.0224 25.387C39.9817 25.4866 39.9308 25.5817 39.8706 25.6708C39.7524 25.8538 39.5973 26.01 39.4152 26.1295C39.3253 26.1884 39.2303 26.2393 39.1314 26.2813C39.0312 26.322 38.9273 26.353 38.8212 26.3737C38.7157 26.3939 38.6084 26.4027 38.5011 26.4001Z" fill="white"/>
<path d="M33.0002 26.4001C32.8893 26.401 32.7786 26.3899 32.6702 26.3671C32.5651 26.3463 32.4623 26.3154 32.3633 26.2747C32.2643 26.2326 32.1693 26.1818 32.0795 26.1229C31.9877 26.0639 31.9025 25.9953 31.8254 25.9183C31.5185 25.6072 31.3476 25.187 31.3502 24.7501C31.3492 24.6392 31.3603 24.5286 31.3832 24.4201C31.4039 24.315 31.4349 24.2122 31.4756 24.1132C31.5182 24.0135 31.569 23.9175 31.6274 23.8261C31.688 23.7366 31.7565 23.6527 31.832 23.5753C31.9091 23.4982 31.9943 23.4297 32.0861 23.3707C32.1759 23.3117 32.2709 23.2609 32.3699 23.2189C32.7735 23.052 33.2268 23.052 33.6305 23.2189C33.7294 23.2609 33.8244 23.3117 33.9143 23.3707C34.005 23.4297 34.089 23.4983 34.1651 23.5753C34.2425 23.6518 34.3121 23.7358 34.373 23.8261C34.4313 23.9175 34.4821 24.0135 34.5248 24.1132C34.5654 24.2122 34.5964 24.315 34.6172 24.4201C34.64 24.5286 34.6511 24.6392 34.6502 24.7501C34.6501 24.9671 34.6072 25.1821 34.524 25.3825C34.4408 25.583 34.3188 25.765 34.1651 25.9183C34.089 25.9953 34.005 26.0639 33.9143 26.1229C33.8244 26.1818 33.7294 26.2326 33.6305 26.2747C33.5314 26.3154 33.4286 26.3463 33.3236 26.3671C33.2172 26.3895 33.1088 26.4005 33.0002 26.4001Z" fill="white"/>
<path d="M49.5001 26.4001C49.1734 26.4007 48.8538 26.3042 48.5819 26.1229C48.31 25.9417 48.0981 25.6838 47.9729 25.3819C47.8478 25.08 47.8151 24.7478 47.879 24.4274C47.9429 24.1069 48.1006 23.8126 48.3319 23.5819C48.4086 23.5056 48.4926 23.4371 48.5827 23.3773C48.6733 23.3176 48.7695 23.2668 48.8698 23.2255C49.2735 23.0586 49.7268 23.0586 50.1304 23.2255C50.2301 23.2681 50.3261 23.3189 50.4175 23.3773C50.6208 23.5127 50.7915 23.6916 50.9173 23.9011C51.043 24.1105 51.1207 24.3453 51.1447 24.5884C51.1687 24.8315 51.1384 25.0769 51.056 25.3069C50.9737 25.5369 50.8412 25.7457 50.6683 25.9183C50.3569 26.2254 49.9375 26.3984 49.5001 26.4001Z" fill="white"/>
<path d="M16.5 33.0002C16.3892 33.0011 16.2785 32.99 16.17 32.9672C16.065 32.9464 15.9622 32.9155 15.8631 32.8748C15.7628 32.8335 15.6666 32.7826 15.576 32.723C15.4859 32.6632 15.4019 32.5946 15.3252 32.5184C15.249 32.4405 15.1804 32.3554 15.1206 32.2643C15.0617 32.1744 15.0109 32.0794 14.9688 31.9805C14.9308 31.8833 14.9021 31.7828 14.883 31.6802C14.8372 31.4626 14.8372 31.2378 14.883 31.0202C14.9038 30.9151 14.9347 30.8123 14.9754 30.7133C15.0181 30.6136 15.0688 30.5176 15.1272 30.4262C15.2467 30.2451 15.4016 30.0902 15.5826 29.9708C15.6732 29.9111 15.7694 29.8603 15.8697 29.819C16.2734 29.6521 16.7267 29.6521 17.1303 29.819C17.2293 29.861 17.3242 29.9118 17.4141 29.9708C17.5952 30.0913 17.751 30.246 17.8728 30.4262C17.9312 30.5176 17.982 30.6136 18.0246 30.7133C18.0653 30.8123 18.0963 30.9151 18.117 31.0202C18.1629 31.2378 18.1629 31.4626 18.117 31.6802C18.0963 31.7852 18.0653 31.888 18.0246 31.9871C17.9826 32.086 17.9318 32.181 17.8728 32.2709C17.7523 32.453 17.5963 32.609 17.4141 32.7296C17.3242 32.7885 17.2293 32.8393 17.1303 32.8814C17.0313 32.9221 16.9285 32.953 16.8234 32.9738C16.7169 32.994 16.6085 33.0028 16.5 33.0002Z" fill="white"/>
<path d="M22.0011 33.0001C21.8902 33.0012 21.7796 32.9901 21.6711 32.9671C21.5651 32.9459 21.4612 32.915 21.3609 32.8747C21.262 32.8326 21.167 32.7818 21.0771 32.7229C20.8961 32.6034 20.7411 32.4485 20.6217 32.2675C20.5621 32.1768 20.5113 32.0807 20.4699 31.9804C20.4281 31.8814 20.396 31.7786 20.3742 31.6735C20.3329 31.4554 20.3329 31.2315 20.3742 31.0135C20.396 30.9083 20.4281 30.8055 20.4699 30.7066C20.5113 30.6063 20.5621 30.5101 20.6217 30.4195C20.6824 30.33 20.7509 30.2461 20.8263 30.1687C20.9039 30.0934 20.9878 30.0249 21.0771 29.9641C21.167 29.9051 21.262 29.8543 21.3609 29.8123C21.4612 29.772 21.5651 29.741 21.6711 29.7199C21.8889 29.6754 22.1133 29.6754 22.3311 29.7199C22.436 29.7411 22.5388 29.772 22.638 29.8123C22.7369 29.8543 22.8319 29.9051 22.9218 29.9641C23.0117 30.0241 23.0957 30.0926 23.1726 30.1687C23.248 30.2461 23.3165 30.33 23.3772 30.4195C23.4368 30.5101 23.4876 30.6063 23.529 30.7066C23.5708 30.8055 23.6029 30.9083 23.6247 31.0135C23.666 31.2315 23.666 31.4554 23.6247 31.6735C23.6029 31.7786 23.5708 31.8814 23.529 31.9804C23.4876 32.0807 23.4368 32.1768 23.3772 32.2675C23.3174 32.3576 23.2489 32.4416 23.1726 32.5183C23.0966 32.5953 23.0125 32.6639 22.9218 32.7229C22.8319 32.7818 22.7369 32.8326 22.638 32.8747C22.5388 32.9149 22.436 32.9459 22.3311 32.9671C22.2226 32.9898 22.112 33.0008 22.0011 33.0001Z" fill="white"/>
<path d="M27.4989 33.0001C27.3881 33.0013 27.2774 32.9902 27.1689 32.9671C27.0628 32.9464 26.9589 32.9155 26.8587 32.8747C26.7598 32.8327 26.6648 32.7819 26.5749 32.7229C26.4842 32.6639 26.4001 32.5953 26.3241 32.5183C26.0173 32.2072 25.8464 31.7871 25.8489 31.3501C25.848 31.2392 25.8591 31.1286 25.8819 31.0201C25.9027 30.9151 25.9336 30.8123 25.9743 30.7132C26.0169 30.6128 26.0688 30.5167 26.1294 30.4261C26.1892 30.336 26.2578 30.252 26.334 30.1753C26.41 30.0983 26.4941 30.0297 26.5848 29.9707C26.6747 29.9118 26.7697 29.8609 26.8686 29.8189C26.9688 29.7782 27.0727 29.7472 27.1788 29.7265C27.3965 29.6813 27.6212 29.6813 27.8388 29.7265C27.9449 29.7477 28.0487 29.7786 28.149 29.8189C28.248 29.8609 28.3429 29.9118 28.4328 29.9707C28.6139 30.0902 28.7688 30.2451 28.8882 30.4261C28.9466 30.5175 28.9974 30.6135 29.04 30.7132C29.0807 30.8123 29.1117 30.9151 29.1324 31.0201C29.1553 31.1286 29.1664 31.2392 29.1654 31.3501C29.1657 31.6215 29.0989 31.8888 28.9711 32.1283C28.8433 32.3678 28.6584 32.572 28.4328 32.7229C28.3429 32.7819 28.248 32.8327 28.149 32.8747C28.0487 32.915 27.9449 32.9459 27.8388 32.9671C27.7271 32.9909 27.6131 33.002 27.4989 33.0001Z" fill="white"/>
<path d="M43.9988 32.9999C43.888 33.0011 43.7773 32.99 43.6688 32.9669C43.5627 32.9462 43.4588 32.9152 43.3586 32.8745C43.2597 32.8325 43.1647 32.7817 43.0748 32.7227C42.9841 32.6637 42.9001 32.5951 42.824 32.5181C42.7477 32.4406 42.6782 32.3567 42.6161 32.2673C42.5578 32.1759 42.507 32.0799 42.4643 31.9802C42.4237 31.8811 42.3927 31.7784 42.3719 31.6733C42.3491 31.5648 42.338 31.4542 42.3389 31.3433C42.3378 31.2324 42.3489 31.1218 42.3719 31.0133C42.3927 30.9082 42.4237 30.8055 42.4643 30.7064C42.507 30.6067 42.5578 30.5107 42.6161 30.4193C42.6782 30.331 42.7478 30.2482 42.824 30.1718C42.8991 30.0928 42.9833 30.023 43.0748 29.9639C43.1647 29.9049 43.2597 29.8541 43.3586 29.8121C43.4588 29.7714 43.5627 29.7404 43.6688 29.7197C43.8812 29.6768 44.1 29.6768 44.3123 29.7197C44.4174 29.7405 44.5202 29.7714 44.6193 29.8121C44.7196 29.8534 44.8157 29.9042 44.9063 29.9639C44.9973 30.0239 45.0814 30.0936 45.1571 30.1718C45.2333 30.2474 45.3019 30.3303 45.3618 30.4193C45.4213 30.51 45.4722 30.6061 45.5135 30.7064C45.5554 30.8053 45.5874 30.9081 45.6093 31.0133C45.6295 31.1221 45.6395 31.2326 45.639 31.3433C45.6393 31.454 45.6294 31.5645 45.6093 31.6733C45.5874 31.7785 45.5554 31.8813 45.5135 31.9802C45.4722 32.0805 45.4213 32.1766 45.3618 32.2673C45.2423 32.4483 45.0874 32.6033 44.9063 32.7227C44.8157 32.7824 44.7196 32.8332 44.6193 32.8745C44.5202 32.9152 44.4174 32.9461 44.3123 32.9669C44.2093 32.9888 44.1042 32.9998 43.9988 32.9999Z" fill="white"/>
<path d="M38.5011 33C38.0635 33 37.6438 32.8261 37.3344 32.5167C37.0249 32.2073 36.8511 31.7876 36.8511 31.35C36.8507 31.2393 36.8607 31.1288 36.8808 31.02C36.9026 30.9148 36.9347 30.812 36.9765 30.7131C37.0172 30.6135 37.0681 30.5184 37.1283 30.4293C37.3399 30.1114 37.6553 29.8769 38.0206 29.7655C38.3858 29.6542 38.7784 29.673 39.1314 29.8188C39.2303 29.8608 39.3253 29.9116 39.4152 29.9706C39.5973 30.09 39.7524 30.2463 39.8706 30.4293C39.9308 30.5184 39.9817 30.6135 40.0224 30.7131C40.0642 30.812 40.0962 30.9148 40.1181 31.02C40.1639 31.2376 40.1639 31.4624 40.1181 31.68C40.0962 31.7851 40.0642 31.8879 40.0224 31.9869C39.981 32.0872 39.9302 32.1833 39.8706 32.274C39.8108 32.3641 39.7422 32.4481 39.666 32.5248C39.59 32.6018 39.5059 32.6704 39.4152 32.7294C39.3253 32.7883 39.2303 32.8391 39.1314 32.8812C39.0312 32.9219 38.9273 32.9528 38.8212 32.9736C38.7157 32.9937 38.6084 33.0026 38.5011 33Z" fill="white"/>
<path d="M33 33.0002C32.8892 33.0011 32.7785 32.99 32.67 32.9672C32.565 32.9464 32.4622 32.9155 32.3631 32.8748C32.2642 32.8327 32.1692 32.7819 32.0793 32.723C31.9876 32.664 31.9024 32.5954 31.8252 32.5184C31.749 32.4417 31.6804 32.3577 31.6206 32.2676C31.5622 32.1762 31.5115 32.0802 31.4688 31.9805C31.4308 31.8833 31.4021 31.7828 31.383 31.6802C31.3372 31.4626 31.3372 31.2378 31.383 31.0202C31.4038 30.9151 31.4347 30.8123 31.4754 30.7133C31.5181 30.6136 31.5688 30.5176 31.6272 30.4262C31.687 30.3361 31.7556 30.2521 31.8318 30.1754C31.909 30.0983 31.9942 30.0298 32.0859 29.9708C32.1758 29.9118 32.2708 29.861 32.3697 29.819C32.7734 29.6521 33.2267 29.6521 33.6303 29.819C33.7293 29.861 33.8242 29.9118 33.9141 29.9708C34.0952 30.0913 34.251 30.246 34.3728 30.4262C34.4312 30.5176 34.482 30.6136 34.5246 30.7133C34.5653 30.8123 34.5963 30.9151 34.617 31.0202C34.6629 31.2378 34.6629 31.4626 34.617 31.6802C34.5963 31.7852 34.5653 31.888 34.5246 31.9871C34.482 32.0868 34.4312 32.1828 34.3728 32.2742C34.251 32.4543 34.0952 32.609 33.9141 32.7296C33.8242 32.7885 33.7293 32.8393 33.6303 32.8814C33.5313 32.9221 33.4285 32.953 33.3234 32.9738C33.2169 32.994 33.1085 33.0028 33 33.0002Z" fill="white"/>
<path d="M49.5001 32.9999C49.3892 33.0009 49.2786 32.9898 49.1701 32.9669C49.0651 32.9462 48.9623 32.9152 48.8632 32.8745C48.7629 32.8332 48.6667 32.7824 48.5761 32.7227C48.4868 32.6619 48.4029 32.5934 48.3253 32.5181C48.095 32.2872 47.9382 31.9932 47.8749 31.6732C47.8116 31.3533 47.8445 31.0217 47.9695 30.7205C48.0945 30.4192 48.306 30.1618 48.5772 29.9807C48.8485 29.7995 49.1673 29.7029 49.4935 29.7029C49.8197 29.7029 50.1385 29.7995 50.4098 29.9807C50.681 30.1618 50.8925 30.4192 51.0175 30.7205C51.1425 31.0217 51.1754 31.3533 51.1121 31.6732C51.0488 31.9932 50.8921 32.2872 50.6617 32.5181C50.5841 32.5934 50.5002 32.6619 50.4109 32.7227C50.3195 32.7811 50.2235 32.8319 50.1238 32.8745C50.0247 32.9152 49.922 32.9462 49.8169 32.9669C49.7127 32.9889 49.6066 32.9999 49.5001 32.9999Z" fill="white"/>
<path d="M16.5 39.6C16.3892 39.601 16.2785 39.5899 16.17 39.567C16.065 39.5463 15.9622 39.5153 15.8631 39.4746C15.7628 39.4333 15.6667 39.3825 15.576 39.3228C15.395 39.2034 15.2401 39.0485 15.1206 38.8674C15.0623 38.7761 15.0115 38.68 14.9688 38.5803C14.9281 38.4813 14.8972 38.3785 14.8764 38.2734C14.8306 38.0558 14.8306 37.8311 14.8764 37.6134C14.8972 37.5084 14.9281 37.4056 14.9688 37.3065C15.0115 37.2068 15.0623 37.1108 15.1206 37.0194C15.2401 36.8384 15.395 36.6835 15.576 36.564C15.6667 36.5044 15.7628 36.4535 15.8631 36.4122C16.2668 36.2454 16.7201 36.2454 17.1237 36.4122C17.2227 36.4543 17.3176 36.5051 17.4075 36.564C17.5886 36.6846 17.7444 36.8393 17.8662 37.0194C17.9246 37.1108 17.9754 37.2068 18.018 37.3065C18.0587 37.4056 18.0897 37.5084 18.1104 37.6134C18.1333 37.7219 18.1444 37.8326 18.1434 37.9434C18.1434 38.1605 18.1005 38.3754 18.0173 38.5759C17.934 38.7763 17.8121 38.9584 17.6583 39.1116C17.5823 39.1886 17.4982 39.2572 17.4075 39.3162C17.3176 39.3752 17.2227 39.426 17.1237 39.468C17.0247 39.5087 16.9219 39.5397 16.8168 39.5604C16.7129 39.5846 16.6067 39.5979 16.5 39.6Z" fill="white"/>
<path d="M22.0011 39.5999C21.8902 39.601 21.7796 39.59 21.6711 39.5669C21.5651 39.5457 21.4612 39.5148 21.3609 39.4745C21.262 39.4325 21.167 39.3817 21.0771 39.3227C20.8961 39.2033 20.7411 39.0483 20.6217 38.8673C20.5621 38.7766 20.5113 38.6805 20.4699 38.5802C20.4281 38.4813 20.396 38.3785 20.3742 38.2733C20.3329 38.0553 20.3329 37.8314 20.3742 37.6133C20.396 37.5081 20.4281 37.4054 20.4699 37.3064C20.5113 37.2061 20.5621 37.11 20.6217 37.0193C20.7411 36.8383 20.8961 36.6834 21.0771 36.5639C21.167 36.505 21.262 36.4541 21.3609 36.4121C21.4612 36.3718 21.5651 36.3409 21.6711 36.3197C21.8889 36.2753 22.1133 36.2753 22.3311 36.3197C22.4361 36.3409 22.5388 36.3718 22.638 36.4121C22.7369 36.4541 22.8319 36.505 22.9218 36.5639C23.0125 36.6229 23.0966 36.6915 23.1726 36.7685C23.3261 36.9241 23.4472 37.1087 23.5288 37.3115C23.6103 37.5143 23.6508 37.7313 23.6478 37.9499C23.6482 38.0606 23.6382 38.1711 23.6181 38.2799C23.5963 38.3851 23.5642 38.4879 23.5224 38.5868C23.481 38.6871 23.4302 38.7832 23.3706 38.8739C23.3108 38.964 23.2423 39.048 23.166 39.1247C23.09 39.2017 23.0059 39.2703 22.9152 39.3293C22.8253 39.3883 22.7303 39.4391 22.6314 39.4811C22.5322 39.5214 22.4295 39.5523 22.3245 39.5735C22.2179 39.5935 22.1095 39.6024 22.0011 39.5999Z" fill="white"/>
<path d="M27.4988 39.6C27.388 39.6011 27.2773 39.5901 27.1688 39.567C27.0627 39.5463 26.9588 39.5153 26.8586 39.4746C26.7597 39.4325 26.6647 39.3817 26.5748 39.3228C26.4841 39.2638 26.4001 39.1952 26.324 39.1182C26.2478 39.0415 26.1793 38.9575 26.1194 38.8674C26.0588 38.7768 26.0069 38.6807 25.9643 38.5803C25.9237 38.4812 25.8927 38.3784 25.8719 38.2734C25.8489 38.1649 25.8378 38.0543 25.8389 37.9434C25.8382 37.8325 25.8493 37.7219 25.8719 37.6134C25.8927 37.5083 25.9237 37.4055 25.9643 37.3065C26.0062 37.2068 26.0582 37.1117 26.1194 37.0227C26.1784 36.931 26.247 36.8458 26.324 36.7686C26.4001 36.6916 26.4841 36.623 26.5748 36.564C26.6647 36.505 26.7597 36.4542 26.8586 36.4122C26.9588 36.3714 27.0627 36.3405 27.1688 36.3198C27.3865 36.2746 27.6112 36.2746 27.8288 36.3198C27.9349 36.341 28.0387 36.3719 28.139 36.4122C28.238 36.4542 28.333 36.505 28.4228 36.564C28.5129 36.6238 28.597 36.6923 28.6736 36.7686C28.7507 36.8458 28.8193 36.931 28.8782 37.0227C28.9372 37.1126 28.988 37.2075 29.03 37.3065C29.0707 37.4055 29.1017 37.5083 29.1224 37.6134C29.1451 37.7219 29.1562 37.8325 29.1554 37.9434C29.1566 38.0543 29.1455 38.1649 29.1224 38.2734C29.1017 38.3784 29.0707 38.4812 29.03 38.5803C28.9874 38.68 28.9366 38.776 28.8782 38.8674C28.7588 39.0484 28.6039 39.2033 28.4228 39.3228C28.333 39.3817 28.238 39.4325 28.139 39.4746C28.0387 39.5149 27.9349 39.5458 27.8288 39.567C27.7204 39.59 27.6097 39.6011 27.4988 39.6Z" fill="white"/>
<path d="M43.9989 39.6C43.888 39.6012 43.7774 39.5901 43.6689 39.567C43.5628 39.5463 43.4589 39.5153 43.3587 39.4746C43.2598 39.4326 43.1648 39.3818 43.0749 39.3228C42.9842 39.2638 42.9001 39.1952 42.8241 39.1182C42.6705 38.9649 42.5485 38.7828 42.4654 38.5824C42.3822 38.3819 42.3394 38.167 42.3394 37.95C42.3394 37.733 42.3822 37.5181 42.4654 37.3176C42.5485 37.1171 42.6705 36.9351 42.8241 36.7818C42.901 36.7057 42.985 36.6372 43.0749 36.5772C43.1648 36.5182 43.2598 36.4674 43.3587 36.4254C43.4589 36.3846 43.5628 36.3537 43.6689 36.333C43.8813 36.29 44.1001 36.29 44.3124 36.333C44.4175 36.3537 44.5203 36.3847 44.6193 36.4254C44.7197 36.4667 44.8158 36.5175 44.9064 36.5772C44.9957 36.6381 45.0796 36.7065 45.1572 36.7818C45.3301 36.9544 45.4626 37.1632 45.5449 37.3932C45.6273 37.6232 45.6576 37.8686 45.6336 38.1117C45.6096 38.3548 45.5319 38.5896 45.4062 38.799C45.2804 39.0084 45.1097 39.1873 44.9064 39.3228C44.8158 39.3825 44.7197 39.4333 44.6193 39.4746C44.5203 39.5153 44.4175 39.5462 44.3124 39.567C44.2093 39.5889 44.1043 39.5999 43.9989 39.6Z" fill="white"/>
<path d="M38.5011 39.6001C38.0635 39.6001 37.6438 39.4262 37.3344 39.1168C37.0249 38.8073 36.8511 38.3877 36.8511 37.9501C36.8509 37.8394 36.8608 37.7289 36.8808 37.6201C36.9026 37.5149 36.9347 37.4121 36.9765 37.3132C37.0179 37.2129 37.0687 37.1167 37.1283 37.0261C37.3098 36.7552 37.5674 36.5443 37.8687 36.4198C38.17 36.2952 38.5015 36.2628 38.8212 36.3265C38.9273 36.3472 39.0312 36.3781 39.1314 36.4189C39.2303 36.4609 39.3253 36.5117 39.4152 36.5707C39.5059 36.6297 39.59 36.6983 39.666 36.7753C39.974 37.0864 40.1481 37.5057 40.1511 37.9435C40.1505 38.0543 40.1394 38.1647 40.1181 38.2735C40.0962 38.3786 40.0642 38.4814 40.0224 38.5804C39.9817 38.681 39.9308 38.7772 39.8706 38.8675C39.8108 38.9576 39.7422 39.0416 39.666 39.1183C39.59 39.1953 39.5059 39.2639 39.4152 39.3229C39.3253 39.3818 39.2303 39.4326 39.1314 39.4747C39.0312 39.5154 38.9273 39.5463 38.8212 39.5671C38.716 39.5894 38.6087 39.6005 38.5011 39.6001Z" fill="white"/>
<path d="M33 39.6C32.8892 39.601 32.7785 39.5899 32.67 39.567C32.565 39.5463 32.4622 39.5153 32.3631 39.4746C32.2642 39.4326 32.1692 39.3818 32.0793 39.3228C31.9876 39.2639 31.9024 39.1953 31.8252 39.1182C31.749 39.0416 31.6804 38.9575 31.6206 38.8674C31.5623 38.7761 31.5115 38.68 31.4688 38.5803C31.4281 38.4813 31.3972 38.3785 31.3764 38.2734C31.3306 38.0558 31.3306 37.8311 31.3764 37.6134C31.3972 37.5084 31.4281 37.4056 31.4688 37.3065C31.5115 37.2068 31.5623 37.1108 31.6206 37.0194C31.6804 36.9293 31.749 36.8453 31.8252 36.7686C31.9024 36.6916 31.9876 36.623 32.0793 36.564C32.1692 36.5051 32.2642 36.4543 32.3631 36.4122C32.7668 36.2454 33.2201 36.2454 33.6237 36.4122C33.7227 36.4543 33.8177 36.5051 33.9075 36.564C34.0886 36.6846 34.2444 36.8393 34.3662 37.0194C34.4246 37.1108 34.4754 37.2068 34.518 37.3065C34.5587 37.4056 34.5897 37.5084 34.6104 37.6134C34.6563 37.8311 34.6563 38.0558 34.6104 38.2734C34.5897 38.3785 34.5587 38.4813 34.518 38.5803C34.4754 38.68 34.4246 38.7761 34.3662 38.8674C34.2444 39.0476 34.0886 39.2023 33.9075 39.3228C33.8177 39.3818 33.7227 39.4326 33.6237 39.4746C33.5247 39.5153 33.4219 39.5463 33.3168 39.567C33.2127 39.589 33.1065 39.6 33 39.6Z" fill="white"/>
<path d="M49.5 39.5998C49.3892 39.6008 49.2785 39.5897 49.17 39.5668C49.065 39.5461 48.9622 39.5151 48.8631 39.4744C48.7628 39.4331 48.6667 39.3823 48.576 39.3226C48.4859 39.2628 48.4019 39.1943 48.3252 39.118C48.249 39.0402 48.1804 38.9551 48.1206 38.8639C48.0617 38.7741 48.0109 38.6791 47.9688 38.5801C47.9281 38.4811 47.8972 38.3783 47.8764 38.2732C47.8306 38.0556 47.8306 37.8309 47.8764 37.6132C47.8972 37.5082 47.9281 37.4054 47.9688 37.3063C48.0115 37.2066 48.0623 37.1106 48.1206 37.0192C48.1804 36.9291 48.249 36.8451 48.3252 36.7684C48.4785 36.6148 48.6606 36.4929 48.861 36.4097C49.0615 36.3265 49.2764 36.2837 49.4934 36.2837C49.7105 36.2837 49.9254 36.3265 50.1258 36.4097C50.3263 36.4929 50.5084 36.6148 50.6616 36.7684C50.7379 36.8451 50.8064 36.9291 50.8662 37.0192C50.9246 37.1106 50.9754 37.2066 51.018 37.3063C51.0587 37.4054 51.0897 37.5082 51.1104 37.6132C51.1563 37.8309 51.1563 38.0556 51.1104 38.2732C51.0897 38.3783 51.0587 38.4811 51.018 38.5801C50.976 38.6791 50.9252 38.7741 50.8662 38.8639C50.8064 38.9551 50.7379 39.0402 50.6616 39.118C50.5849 39.1943 50.5009 39.2628 50.4108 39.3226C50.3195 39.381 50.2234 39.4318 50.1237 39.4744C50.0247 39.5151 49.9219 39.5461 49.8168 39.5668C49.7127 39.5888 49.6065 39.5998 49.5 39.5998Z" fill="white"/>
<path d="M16.5 46.1999C16.3892 46.2008 16.2785 46.1898 16.17 46.1669C16.065 46.1461 15.9622 46.1152 15.8631 46.0745C15.7628 46.0332 15.6667 45.9824 15.576 45.9227C15.4859 45.8617 15.4019 45.7921 15.3252 45.7148C15.2491 45.6392 15.1805 45.5563 15.1206 45.4673C15.0623 45.3759 15.0115 45.2799 14.9688 45.1802C14.9281 45.0811 14.8972 44.9784 14.8764 44.8733C14.8306 44.6557 14.8306 44.4309 14.8764 44.2133C14.8972 44.1082 14.9281 44.0055 14.9688 43.9064C15.0115 43.8067 15.0623 43.7107 15.1206 43.6193C15.1805 43.5303 15.2491 43.4474 15.3252 43.3718C15.4019 43.2945 15.4859 43.2249 15.576 43.1639C15.6667 43.1042 15.7628 43.0534 15.8631 43.0121C16.2668 42.8453 16.7201 42.8453 17.1237 43.0121C17.2227 43.0541 17.3176 43.1049 17.4075 43.1639C17.4983 43.2241 17.5824 43.2938 17.6583 43.3718C17.7365 43.4464 17.8062 43.5294 17.8662 43.6193C17.9246 43.7107 17.9754 43.8067 18.018 43.9064C18.0587 44.0055 18.0897 44.1082 18.1104 44.2133C18.1563 44.4309 18.1563 44.6557 18.1104 44.8733C18.0897 44.9784 18.0587 45.0811 18.018 45.1802C17.9754 45.2799 17.9246 45.3759 17.8662 45.4673C17.8062 45.5571 17.7365 45.6401 17.6583 45.7148C17.5824 45.7928 17.4983 45.8625 17.4075 45.9227C17.3176 45.9817 17.2227 46.0325 17.1237 46.0745C17.0247 46.1152 16.9219 46.1461 16.8168 46.1669C16.7127 46.1888 16.6065 46.1999 16.5 46.1999Z" fill="white"/>
<path d="M22.0011 46.2C21.8902 46.2011 21.7795 46.19 21.6711 46.167C21.5651 46.1458 21.4612 46.1149 21.3609 46.0746C21.2619 46.0326 21.167 45.9818 21.0771 45.9228C20.9878 45.8619 20.9039 45.7935 20.8263 45.7182C20.5216 45.4057 20.351 44.9865 20.3511 44.55C20.3507 44.4393 20.3607 44.3288 20.3808 44.22C20.4026 44.1148 20.4347 44.012 20.4765 43.9131C20.5172 43.8135 20.5681 43.7184 20.6283 43.6293C20.6881 43.5382 20.7566 43.4531 20.8329 43.3752C20.9105 43.2999 20.9944 43.2315 21.0837 43.1706C21.1736 43.1116 21.2685 43.0608 21.3675 43.0188C21.4678 42.9785 21.5717 42.9476 21.6777 42.9264C21.8954 42.882 22.1199 42.882 22.3377 42.9264C22.4426 42.9476 22.5454 42.9785 22.6446 43.0188C22.7435 43.0608 22.8385 43.1116 22.9284 43.1706C23.1105 43.2901 23.2657 43.4463 23.3838 43.6293C23.444 43.7184 23.4949 43.8135 23.5356 43.9131C23.5774 44.012 23.6095 44.1148 23.6313 44.22C23.6514 44.3288 23.6613 44.4393 23.661 44.55C23.6615 44.6607 23.6516 44.7712 23.6313 44.88C23.6095 44.9852 23.5774 45.088 23.5356 45.1869C23.4949 45.2865 23.444 45.3816 23.3838 45.4707C23.2657 45.6537 23.1105 45.8099 22.9284 45.9294C22.8385 45.9884 22.7435 46.0392 22.6446 46.0812C22.5454 46.1215 22.4426 46.1524 22.3377 46.1736C22.2268 46.1945 22.1139 46.2034 22.0011 46.2Z" fill="white"/>
<path d="M27.4988 46.2001C27.3879 46.2012 27.2773 46.1902 27.1688 46.1671C27.0627 46.1463 26.9588 46.1154 26.8586 46.0747C26.7597 46.0326 26.6647 45.9818 26.5748 45.9229C26.4841 45.8639 26.4 45.7953 26.324 45.7183C26.2478 45.6416 26.1792 45.5576 26.1194 45.4675C26.0588 45.3769 26.0069 45.2807 25.9643 45.1804C25.9236 45.0813 25.8927 44.9785 25.8719 44.8735C25.8491 44.765 25.838 44.6543 25.8389 44.5435C25.839 44.3264 25.8818 44.1115 25.9651 43.911C26.0483 43.7106 26.1703 43.5285 26.324 43.3753C26.4 43.2983 26.4841 43.2297 26.5748 43.1707C26.6647 43.1117 26.7597 43.0609 26.8586 43.0189C26.9588 42.9781 27.0627 42.9472 27.1688 42.9265C27.3865 42.8813 27.6111 42.8813 27.8288 42.9265C27.9348 42.9477 28.0387 42.9786 28.139 43.0189C28.238 43.0609 28.3329 43.1117 28.4228 43.1707C28.6481 43.323 28.8323 43.5286 28.959 43.7692C29.0856 44.0099 29.1509 44.2781 29.1488 44.5501C29.1497 44.6609 29.1387 44.7716 29.1158 44.8801C29.0951 44.9851 29.0641 45.0879 29.0234 45.187C28.9808 45.2867 28.93 45.3827 28.8716 45.4741C28.7522 45.6551 28.5973 45.81 28.4162 45.9295C28.3263 45.9884 28.2314 46.0392 28.1324 46.0813C28.0321 46.1216 27.9282 46.1525 27.8222 46.1737C27.7157 46.194 27.6073 46.2029 27.4988 46.2001Z" fill="white"/>
<path d="M43.9989 46.2001C43.888 46.2012 43.7774 46.1902 43.6689 46.1671C43.5628 46.1464 43.4589 46.1154 43.3587 46.0747C43.2598 46.0326 43.1648 45.9818 43.0749 45.9229C42.9842 45.8639 42.9001 45.7953 42.8241 45.7183C42.6705 45.565 42.5485 45.3829 42.4654 45.1825C42.3822 44.982 42.3394 44.7671 42.3394 44.5501C42.3394 44.333 42.3822 44.1181 42.4654 43.9177C42.5485 43.7172 42.6705 43.5352 42.8241 43.3819C42.901 43.3058 42.985 43.2373 43.0749 43.1773C43.1648 43.1183 43.2598 43.0675 43.3587 43.0255C43.4589 42.9847 43.5628 42.9538 43.6689 42.9331C43.8813 42.8901 44.1001 42.8901 44.3124 42.9331C44.4175 42.9538 44.5203 42.9848 44.6193 43.0255C44.7197 43.0668 44.8158 43.1176 44.9064 43.1773C44.9957 43.2382 45.0796 43.3066 45.1572 43.3819C45.3301 43.5545 45.4626 43.7633 45.5449 43.9933C45.6273 44.2232 45.6576 44.4687 45.6336 44.7118C45.6096 44.9549 45.5319 45.1896 45.4062 45.3991C45.2804 45.6085 45.1097 45.7874 44.9064 45.9229C44.8158 45.9825 44.7197 46.0334 44.6193 46.0747C44.5203 46.1154 44.4175 46.1463 44.3124 46.1671C44.2093 46.1889 44.1043 46.2 43.9989 46.2001Z" fill="white"/>
<path d="M38.5011 46.2002C38.2843 46.2005 38.0695 46.1582 37.869 46.0755C37.6686 45.9928 37.4864 45.8715 37.3329 45.7184C37.2566 45.6405 37.1881 45.5554 37.1283 45.4643C37.0681 45.3751 37.0172 45.28 36.9765 45.1805C36.9347 45.0815 36.9026 44.9787 36.8808 44.8736C36.8607 44.7647 36.8507 44.6542 36.8511 44.5436C36.8506 44.4329 36.8605 44.3224 36.8808 44.2136C36.9026 44.1084 36.9347 44.0056 36.9765 43.9067C37.0179 43.8064 37.0687 43.7102 37.1283 43.6196C37.3098 43.3487 37.5675 43.1378 37.8687 43.0133C38.17 42.8888 38.5015 42.8563 38.8212 42.92C38.9273 42.9407 39.0312 42.9716 39.1314 43.0124C39.2303 43.0544 39.3253 43.1052 39.4152 43.1642C39.5059 43.2232 39.59 43.2918 39.666 43.3688C39.7414 43.4462 39.8099 43.5301 39.8706 43.6196C39.9302 43.7102 39.981 43.8064 40.0224 43.9067C40.0642 44.0056 40.0963 44.1084 40.1181 44.2136C40.1639 44.4312 40.1639 44.6559 40.1181 44.8736C40.0963 44.9787 40.0642 45.0815 40.0224 45.1805C39.9817 45.28 39.9308 45.3751 39.8706 45.4643C39.7525 45.6473 39.5973 45.8035 39.4152 45.923C39.3253 45.9819 39.2303 46.0327 39.1314 46.0748C39.0312 46.1155 38.9273 46.1464 38.8212 46.1672C38.716 46.1895 38.6087 46.2006 38.5011 46.2002Z" fill="white"/>
<path d="M33 46.1999C32.8892 46.2008 32.7785 46.1898 32.67 46.1669C32.565 46.1461 32.4622 46.1152 32.3631 46.0745C32.2642 46.0325 32.1692 45.9817 32.0793 45.9227C31.9876 45.8637 31.9024 45.7951 31.8252 45.7181C31.749 45.6414 31.6804 45.5574 31.6206 45.4673C31.5623 45.3759 31.5115 45.2799 31.4688 45.1802C31.4281 45.0811 31.3972 44.9784 31.3764 44.8733C31.3306 44.6557 31.3306 44.4309 31.3764 44.2133C31.3972 44.1082 31.4281 44.0055 31.4688 43.9064C31.5115 43.8067 31.5623 43.7107 31.6206 43.6193C31.6804 43.5292 31.749 43.4452 31.8252 43.3685C31.9024 43.2915 31.9876 43.2229 32.0793 43.1639C32.1692 43.1049 32.2642 43.0541 32.3631 43.0121C32.7668 42.8453 33.2201 42.8453 33.6237 43.0121C33.7227 43.0541 33.8177 43.1049 33.9075 43.1639C34.0886 43.2844 34.2444 43.4391 34.3662 43.6193C34.4246 43.7107 34.4754 43.8067 34.518 43.9064C34.5587 44.0055 34.5897 44.1082 34.6104 44.2133C34.6563 44.4309 34.6563 44.6557 34.6104 44.8733C34.5897 44.9784 34.5587 45.0811 34.518 45.1802C34.4754 45.2799 34.4246 45.3759 34.3662 45.4673C34.2444 45.6475 34.0886 45.8022 33.9075 45.9227C33.8177 45.9817 33.7227 46.0325 33.6237 46.0745C33.5247 46.1152 33.4219 46.1461 33.3168 46.1669C33.2127 46.1888 33.1065 46.1999 33 46.1999Z" fill="white"/>
<path d="M49.5001 46.2001C49.1734 46.2007 48.8538 46.1043 48.5819 45.923C48.31 45.7417 48.0981 45.4838 47.9729 45.1819C47.8478 44.8801 47.8151 44.5479 47.879 44.2274C47.9429 43.907 48.1006 43.6127 48.3319 43.3819C48.4086 43.3057 48.4926 43.2371 48.5827 43.1773C48.6733 43.1177 48.7695 43.0668 48.8698 43.0255C49.2735 42.8587 49.7268 42.8587 50.1304 43.0255C50.2301 43.0682 50.3261 43.1189 50.4175 43.1773C50.6208 43.3128 50.7915 43.4917 50.9173 43.7011C51.043 43.9106 51.1207 44.1453 51.1447 44.3884C51.1687 44.6315 51.1384 44.8769 51.056 45.1069C50.9737 45.3369 50.8412 45.5457 50.6683 45.7183C50.3569 46.0254 49.9375 46.1984 49.5001 46.2001Z" fill="white"/>
</svg>
