<svg width="66" height="66" fill="none" xmlns="http://www.w3.org/2000/svg"><path d="M56.328 57.865H9.672a1.65 1.65 0 110-3.3h46.656a1.65 1.65 0 010 3.3zM20.516 32.868a7.984 7.984 0 117.98-7.983 7.992 7.992 0 01-7.98 7.983zm0-12.662a4.682 4.682 0 10-.007 9.365 4.682 4.682 0 00.007-9.365z" fill="#fff"/><path d="M9.57 51.077a1.65 1.65 0 01-1.65-1.65v-8.87c0-4.475 5.534-7.98 12.596-7.98 3.3 0 6.402.776 8.742 2.179a1.653 1.653 0 01-1.703 2.831c-1.805-1.086-4.37-1.71-7.039-1.71-5.478 0-9.296 2.466-9.296 4.68v8.87a1.65 1.65 0 01-1.65 1.65zm32.574-23.449a9.805 9.805 0 119.801-9.808 9.814 9.814 0 01-9.8 9.808zm0-16.306a6.505 6.505 0 106.501 6.498 6.511 6.511 0 00-6.5-6.498z" fill="#fff"/><path d="M56.239 51.078a1.65 1.65 0 01-1.65-1.65V38.002c0-3.138-5-6.501-12.445-6.501-7.444 0-12.444 3.363-12.444 6.5v11.425a1.65 1.65 0 11-3.3 0V38.004c0-5.495 6.93-9.801 15.744-9.801 8.815 0 15.745 4.306 15.745 9.8v11.425a1.648 1.648 0 01-1.65 1.65z" fill="#fff"/></svg>