<svg width="66" height="66" fill="none" xmlns="http://www.w3.org/2000/svg"><path d="M53.031 57.978H12.969a4.95 4.95 0 01-4.95-4.95V19.8a4.95 4.95 0 014.95-4.95H33a1.65 1.65 0 110 3.3H12.969a1.65 1.65 0 00-1.65 1.65v33.231a1.65 1.65 0 001.65 1.65h40.062a1.65 1.65 0 001.65-1.65v-3.53a1.65 1.65 0 013.3 0v3.53a4.95 4.95 0 01-4.95 4.947z" fill="#fff"/><path d="M48.335 51.15a1.65 1.65 0 01-1.198-.515l-7.824-8.25a1.65 1.65 0 01-.452-1.135V9.672a1.65 1.65 0 011.65-1.65h15.645a1.65 1.65 0 011.65 1.65V41.25c0 .422-.161.828-.452 1.135l-7.824 8.25a1.649 1.649 0 01-1.195.515zm-6.174-10.56l6.174 6.507 6.171-6.507V11.322H42.161V40.59z" fill="#fff"/><path d="M56.156 18.15H40.511a1.65 1.65 0 110-3.3h15.645a1.65 1.65 0 110 3.3zM33 30.36H19.361a1.65 1.65 0 010-3.3h13.64a1.65 1.65 0 110 3.3zm0 8.25H19.361a1.65 1.65 0 010-3.3h13.64a1.65 1.65 0 110 3.3zm0 8.25H19.361a1.65 1.65 0 010-3.3h13.64a1.65 1.65 0 110 3.3z" fill="#fff"/></svg>