<svg width="66" height="66" fill="none" xmlns="http://www.w3.org/2000/svg"><path d="M56.328 52.85H9.672a1.65 1.65 0 01-1.65-1.65V13.087a1.65 1.65 0 011.65-1.65h46.656a1.65 1.65 0 011.65 1.65v38.111a1.65 1.65 0 01-1.65 1.65zm-45.006-3.3h43.356V14.737H11.322v34.811z" fill="#fff"/><path d="M16.5 18.15a1.65 1.65 0 01-1.65-1.65V9.672a1.65 1.65 0 113.3 0V16.5a1.65 1.65 0 01-1.65 1.65zm33 0a1.65 1.65 0 01-1.65-1.65V9.672a1.65 1.65 0 113.3 0V16.5a1.65 1.65 0 01-1.65 1.65zm3.96 39.828h-40.9a4.544 4.544 0 01-4.538-4.538V49.5a1.65 1.65 0 113.3 0v3.94a1.237 1.237 0 001.238 1.238h40.9a1.237 1.237 0 001.234-1.238V49.5a1.65 1.65 0 013.3 0v3.94a4.544 4.544 0 01-4.534 4.538zM16.5 26.4a1.654 1.654 0 01-1.38-.733 1.983 1.983 0 01-.151-.287 1.658 1.658 0 01-.086-.3 1.602 1.602 0 010-.66 1.65 1.65 0 01.987-1.201 1.65 1.65 0 012.247 1.861 1.646 1.646 0 01-1.294 1.294 1.52 1.52 0 01-.323.026zm5.501 0a1.756 1.756 0 01-.64-.125 1.659 1.659 0 01-.74-.607 1.712 1.712 0 01-.247-.595 1.773 1.773 0 010-.66 1.709 1.709 0 01.248-.594 1.616 1.616 0 01.739-.607c.1-.04.204-.071.31-.092a1.648 1.648 0 01.967.092c.099.042.194.093.284.152a1.65 1.65 0 01.726 1.386c0 .11-.01.221-.03.33a1.712 1.712 0 01-.247.594 1.647 1.647 0 01-.456.455c-.09.06-.185.11-.284.152-.099.04-.201.071-.306.093-.107.02-.215.028-.324.026zm5.498 0a1.679 1.679 0 01-.64-.125 1.691 1.691 0 01-.535-.356 1.65 1.65 0 01-.442-1.499 1.654 1.654 0 01.247-.594c.061-.09.13-.173.205-.25.076-.078.16-.146.25-.205a1.679 1.679 0 01.594-.244c.218-.046.443-.046.66 0 .107.02.21.052.311.092a1.653 1.653 0 01.74.607 1.646 1.646 0 01.277.924 1.65 1.65 0 01-1.017 1.525 1.753 1.753 0 01-.65.125zm16.5 0a1.671 1.671 0 01-.64-.125 1.799 1.799 0 01-.284-.152 1.507 1.507 0 01-.251-.205 1.905 1.905 0 01-.208-.25 1.65 1.65 0 01-.244-.594 1.599 1.599 0 010-.66 1.654 1.654 0 01.452-.845c.076-.077.16-.146.25-.205s.186-.11.285-.152a1.686 1.686 0 01.953-.092 1.661 1.661 0 01.594.244 1.606 1.606 0 01.607.742c.042.1.074.202.096.307.041.218.041.442 0 .66a1.709 1.709 0 01-.247.594 1.603 1.603 0 01-.743.608 1.646 1.646 0 01-.62.125zm-5.498 0a1.65 1.65 0 01-1.168-.482 1.683 1.683 0 01-.356-.538 1.65 1.65 0 01-.096-.306c-.02-.11-.03-.22-.03-.33a1.649 1.649 0 013.267-.324 1.602 1.602 0 01-.096.967c-.04.1-.091.195-.151.284a1.583 1.583 0 01-.456.459 1.679 1.679 0 01-.594.244c-.105.02-.213.029-.32.026zM33 26.4a1.65 1.65 0 01-1.175-.482 1.65 1.65 0 01-.442-1.498 1.642 1.642 0 01.987-1.201 1.65 1.65 0 012.28 1.531A1.652 1.652 0 0133 26.4zm16.5 0a1.65 1.65 0 11.63-3.174 1.65 1.65 0 01-.63 3.175zm-33 6.6a1.654 1.654 0 01-1.175-.482 1.69 1.69 0 01-.356-.538 1.658 1.658 0 01-.086-.3 1.602 1.602 0 010-.66 1.65 1.65 0 01.987-1.201 1.65 1.65 0 012.247 1.861 1.646 1.646 0 01-1.294 1.294A1.52 1.52 0 0116.5 33zm5.501 0a1.756 1.756 0 01-.64-.125 1.815 1.815 0 01-.284-.152 1.605 1.605 0 01-.607-.743 1.651 1.651 0 01-.096-.306 1.773 1.773 0 010-.66 1.709 1.709 0 01.248-.594c.06-.09.129-.174.204-.251.078-.076.162-.144.251-.205.09-.059.185-.11.284-.152.1-.04.204-.071.31-.092a1.648 1.648 0 01.967.092 1.691 1.691 0 01.535.356 1.709 1.709 0 01.452.845c.041.218.041.442 0 .66a1.712 1.712 0 01-.248.594 1.647 1.647 0 01-.455.456c-.09.059-.185.11-.284.152a1.73 1.73 0 01-.637.125zm5.498 0a1.671 1.671 0 01-.64-.125 1.799 1.799 0 01-.284-.152 1.507 1.507 0 01-.25-.205 1.65 1.65 0 01-.443-1.498 1.654 1.654 0 01.452-.845c.076-.077.16-.145.25-.204a1.679 1.679 0 01.594-.244c.218-.046.443-.046.66 0 .107.02.21.052.311.092.099.042.194.093.284.152a1.603 1.603 0 01.607.742 1.646 1.646 0 01.125.637A1.65 1.65 0 0127.5 33zm16.5 0a1.679 1.679 0 01-.64-.125 1.799 1.799 0 01-.284-.152 1.511 1.511 0 01-.251-.205 1.913 1.913 0 01-.208-.25 1.659 1.659 0 01-.277-.924 1.659 1.659 0 01.277-.924 1.834 1.834 0 01.458-.456 1.679 1.679 0 011.544-.152 1.582 1.582 0 01.539.36 1.634 1.634 0 01.482 1.171c0 .111-.01.221-.03.33a1.712 1.712 0 01-.247.594 1.604 1.604 0 01-.743.607A1.652 1.652 0 0144 33zm-5.498 0a1.65 1.65 0 01-1.65-1.65c0-.11.01-.221.03-.33a1.647 1.647 0 01.247-.59 1.65 1.65 0 012.287-.46c.182.12.337.276.456.46a1.654 1.654 0 01.247.59 1.602 1.602 0 01-.096.967 1.653 1.653 0 01-.607.742c-.09.06-.185.11-.284.152a1.514 1.514 0 01-.63.119zM33 33a1.654 1.654 0 01-1.38-.733 1.983 1.983 0 01-.151-.286 1.658 1.658 0 01-.086-.3 1.602 1.602 0 010-.66 1.65 1.65 0 01.703-1.05 1.65 1.65 0 012.531 1.71 1.646 1.646 0 01-1.294 1.293A1.52 1.52 0 0133 33zm16.5 0a1.646 1.646 0 01-.923-3.02 1.65 1.65 0 011.834 2.743 1.644 1.644 0 01-.91.277zm-33 6.6a1.646 1.646 0 01-1.624-1.987 1.654 1.654 0 01.7-1.049 1.65 1.65 0 012.441 2.012 1.65 1.65 0 01-1.2.984 1.53 1.53 0 01-.317.04zm5.501 0a1.756 1.756 0 01-.64-.125 1.799 1.799 0 01-.284-.152 1.603 1.603 0 01-.607-.743 1.647 1.647 0 01-.096-.307 1.773 1.773 0 010-.66 1.712 1.712 0 01.248-.594 1.616 1.616 0 01.739-.607c.1-.04.204-.071.31-.092a1.652 1.652 0 011.25.244c.091.059.176.127.252.205a1.65 1.65 0 01.475 1.18c0 .112-.01.222-.03.33a1.712 1.712 0 01-.247.594 1.647 1.647 0 01-.456.456c-.09.06-.185.11-.284.152a1.559 1.559 0 01-.63.119zm5.498 0a1.679 1.679 0 01-.64-.125 1.815 1.815 0 01-.284-.152 1.659 1.659 0 01-.703-1.05 1.518 1.518 0 01-.033-.33 1.657 1.657 0 01.125-.637c.042-.1.094-.194.155-.283a1.54 1.54 0 01.456-.459c.09-.059.185-.11.284-.152.1-.04.204-.072.31-.092a1.63 1.63 0 01.66 0c.106.021.21.052.31.092a1.642 1.642 0 01.535.356 1.794 1.794 0 01.356.538 1.642 1.642 0 01.125.637 1.646 1.646 0 01-1.657 1.657zm16.5 0a1.679 1.679 0 01-.64-.125 1.799 1.799 0 01-.284-.152 1.65 1.65 0 11.924.277zm-5.498 0a1.65 1.65 0 01-1.65-1.65c0-.11.01-.221.03-.33a1.709 1.709 0 01.248-.594 1.65 1.65 0 012.286-.455c.09.059.175.127.251.204a1.677 1.677 0 01.452 1.498 1.659 1.659 0 01-.096.307 1.598 1.598 0 01-.356.538c-.076.077-.16.146-.25.205s-.186.11-.285.152a1.686 1.686 0 01-.63.125zM33 39.6a1.646 1.646 0 01-1.624-1.987 1.654 1.654 0 01.45-.844 1.54 1.54 0 01.253-.205 1.65 1.65 0 012.531 1.71 1.642 1.642 0 01-1.293 1.293A1.53 1.53 0 0133 39.6zm16.5 0a1.646 1.646 0 01-1.624-1.987 1.654 1.654 0 01.985-1.203 1.65 1.65 0 012.25 1.863 1.642 1.642 0 01-1.294 1.294 1.53 1.53 0 01-.317.033zm-33 6.6a1.654 1.654 0 01-1.38-.733 1.651 1.651 0 01-.244-.594 1.602 1.602 0 010-.66 1.651 1.651 0 01.7-1.05c.09-.059.187-.11.287-.15a1.65 1.65 0 012.247 1.86 1.644 1.644 0 01-.244.594c-.06.09-.13.173-.208.248-.076.078-.16.147-.25.208a1.65 1.65 0 01-.907.277zm5.501 0a1.756 1.756 0 01-.64-.125 1.794 1.794 0 01-.284-.152 1.83 1.83 0 01-.25-.205 1.673 1.673 0 01-.476-1.168c0-.11.01-.221.03-.33a1.647 1.647 0 01.247-.59c.06-.092.129-.177.205-.255.078-.075.161-.144.25-.204.09-.06.186-.11.285-.152.1-.04.204-.071.31-.093a1.652 1.652 0 011.25.245c.182.12.338.275.456.458a1.647 1.647 0 01.247.59 1.79 1.79 0 010 .661 1.647 1.647 0 01-.247.59c-.118.184-.274.34-.456.46-.09.058-.184.11-.283.151a1.564 1.564 0 01-.643.119zm5.498 0a1.686 1.686 0 01-.64-.125 1.815 1.815 0 01-.284-.152 1.653 1.653 0 01-.455-.455 1.654 1.654 0 01-.28-.924 1.65 1.65 0 011.989-1.617c.106.02.21.052.31.092a1.651 1.651 0 01.977 1.861 1.646 1.646 0 01-1.294 1.294 1.52 1.52 0 01-.323.026zm16.5 0a1.679 1.679 0 01-.64-.125 1.815 1.815 0 01-.284-.152 1.65 1.65 0 11.924.277zm-5.498 0a1.652 1.652 0 01-1.168-.482 1.683 1.683 0 01-.356-.538 1.651 1.651 0 01-.096-.306 1.783 1.783 0 010-.66 1.709 1.709 0 01.248-.594 1.65 1.65 0 012.286-.456 1.594 1.594 0 01.456.455 1.709 1.709 0 01.247.595 1.602 1.602 0 01-.096.967c-.04.099-.091.194-.151.283a1.57 1.57 0 01-.456.459c-.09.059-.185.11-.284.152a1.686 1.686 0 01-.63.125zM33 46.2a1.654 1.654 0 01-1.38-.733 1.651 1.651 0 01-.244-.594 1.602 1.602 0 010-.66 1.651 1.651 0 01.45-.845 1.799 1.799 0 01.538-.356 1.65 1.65 0 012.246 1.861A1.644 1.644 0 0133 46.2zm16.5 0a1.65 1.65 0 11.63-3.175 1.652 1.652 0 01.538 2.693c-.311.307-.73.48-1.168.482z" fill="#fff"/></svg>