<svg height="1024" width="1024" xmlns="http://www.w3.org/2000/svg"><linearGradient gradientTransform="scale(1 -1) rotate(-20.004 -2033.367 -1165.264)" gradientUnits="userSpaceOnUse" id="a" x1="464.146" x2="-194.272" y1="-72.95" y2="711.627"><stop offset="0"/><stop offset=".192" stop-color="#090909"/><stop offset=".505" stop-color="#212121"/><stop offset=".899" stop-color="#494948"/><stop offset="1" stop-color="#545453"/></linearGradient><circle cx="512.001" cy="512" fill="url(#a)" r="512"/><linearGradient gradientTransform="matrix(1 0 0 -1 214.34 1116.04)" gradientUnits="userSpaceOnUse" id="b" x1="129.037" x2="691.654" y1="836.313" y2="273.696"><stop offset="0"/><stop offset=".483" stop-color="#090909" stop-opacity=".517"/><stop offset="1" stop-color="#181818" stop-opacity="0"/></linearGradient><path d="M668.796 999.546L318.767 649.494 281 512l-7.793-162.105L414.582 491.27l134.373-145.296 91.681 91.663 163.37-91.597 217.447 217.363s-4.848 40.805-9.908 61.333c-5.061 20.527-11.34 43.7-17.04 58.944s-11.797 30.787-16.893 41.563c-5.097 10.775-9.94 21.222-16.524 32.845s-10.039 17.964-16.383 27.726c-6.344 9.761-13.304 20.791-23.021 33.324-9.719 12.533-11.48 15.862-24.392 30.056-12.911 14.192-18.769 21.396-33.417 34.73s-21.867 20.404-36.556 31.485c-14.689 11.081-33.284 24.755-49.068 34.002s-28.288 16.533-41.838 22.911-27.085 12.633-39.324 17.196c-12.239 4.565-15.719 6.168-28.293 10.028z" fill="url(#b)"/><path d="M828.88 706.033c-.198-3.304-.931-7.256-2.244-10.306-2.822-6.555-6.797-13.357-11.069-19.067-22.258-29.75-37.026-44.946-48.155-56.933-11.13-11.984-56.933-55.22-59.929-63.78-2.996-8.562-3.96-12.36 4.548-23.918 8.508-11.559 27.129-40.72 41.684-61.694 9.128-13.155 17.42-26.91 25.612-40.659 9.659-16.21 18.743-32.813 26.485-50.029 3.462-7.698 6.604-14.711 4.46-23.337-1.437-5.779-4.687-10.856-10.739-12.282-3.304-.778-6.909-.857-10.29-.857h-45.589c-5.958 0-11.917-.087-17.876-.076-6.109.011-12.269-.037-18.36.485-8.666.742-13.977 7.425-18.336 14.163-5.333 8.245-10.187 16.823-15.36 25.172a839.213 839.213 0 00-10.397 17.243c-5.312 9.04-10.784 17.983-16.256 26.927-2.271 3.71-4.55 7.416-6.789 11.146-6.421 10.699-62.069 83.898-73.198 86.896S552.1 527.269 552.1 504.58V353.047s-.854-9.935-10.272-9.935H398.639s-21.188.088-13.697 19.138c7.491 19.049 29.644 24.828 29.644 56.611v124.565s-3.745 27.931-27.931 4.815c-19.059-18.215-34.762-39.751-48.637-62.081-14.426-23.215-26.048-47.333-36.4-72.602-2.961-7.227-5.893-14.466-8.934-21.659-3.174-7.509-6.319-15.031-9.363-22.593-3.535-8.784-7.317-20.265-16.849-24.309-4.792-2.033-10.092-1.933-15.2-1.932-18.943.005-37.885.058-56.827.022-5.558-.01-11.116-.016-16.674-.002-13.123.031-29.445-.356-32.558 16.038-1.794 9.443 1.772 19.523 4.757 28.367 1.354 4.02 3.023 7.884 4.537 11.837 7.7 20.099 17.191 39.48 26.987 58.622 23.277 45.48 47.248 89.673 79.387 129.647 32.479 40.396 70.825 79.544 115.996 105.676 12.563 7.268 25.77 13.4 39.527 18.061 53.079 17.979 111.295 16.267 129.273 4.281 17.979-11.986-3.424-90.75 12.842-100.167 16.267-9.418 45.375 11.13 66.777 29.965 21.403 18.834 37.669 35.1 49.656 47.942 7.506 8.042 12.79 17.64 22.575 23.376 16.186 9.486 37.753 8.435 55.808 8.485 10.065.029 20.133.063 30.199-.063 6.803-.084 13.608.136 20.406-.193 11.169-.541 25.778-4.951 24.94-18.926z" fill="#FFF"/></svg>