<svg height="1024" width="1024" xmlns="http://www.w3.org/2000/svg"><linearGradient gradientTransform="rotate(20.004 719.287 2330.923)" gradientUnits="userSpaceOnUse" id="a" x1="231.461" x2="-426.957" y1="1084.928" y2="300.35"><stop offset="0"/><stop offset=".192" stop-color="#090909"/><stop offset=".505" stop-color="#212121"/><stop offset=".899" stop-color="#494948"/><stop offset="1" stop-color="#545453"/></linearGradient><circle cx="512.001" cy="512" fill="url(#a)" r="512"/><linearGradient gradientTransform="translate(428.68 183.08)" gradientUnits="userSpaceOnUse" id="b" x1="-126.538" x2="445.078" y1="119.605" y2="691.221"><stop offset="0"/><stop offset=".483" stop-color="#090909" stop-opacity=".517"/><stop offset="1" stop-color="#181818" stop-opacity="0"/></linearGradient><path d="M571.333 1020.667l-327.54-327.54-.543-.96S199 397 262 343c0 0 319-31.246 500-9.623h19.627l238.922 238.922s-7.75 64.455-29.647 120.828c0 0-21.573 52.121-35.464 74.836 0 0-24.988 40.49-37.416 56.053 0 0-43.909 54.386-74.832 78.619 0 0-10.133 9.746-29.313 23.066 0 0-17.172 12.713-32.249 21.673 0 0-43.714 25.012-62.328 32.802l-18.614 7.79s-8.426 3.406-16.605 6.251c0 0-11.1 3.872-15.84 5.37l4.74-1.498s-23.159 7.164-30.8 9.119c0 0-22.026 5.398-28.889 6.743 0 0-31.345 5.553-41.266 6.634l-.693.082z" fill="url(#b)"/><path d="M813.714 425.619c-8.244-126.901-79.729-122.707-187.804-125.786a3869.006 3869.006 0 00-174.105-1.209c-164.298 3.127-233.243.604-241.519 126.994a2583.495 2583.495 0 00-.387 160.269c8.198 137.81 52.407 135.276 241.907 139.573 52.921.824 105.855.561 158.771-.788 133.299-3.671 195.297-.43 203.527-138.859a2584.978 2584.978 0 00-.39-160.194zM450.41 590.845c-.321-57.301-.292-114.636.087-171.931 53.289 28.273 107.172 57.39 160.931 85.99-53.713 28.507-107.625 57.607-161.018 85.941z" fill="#FFF"/></svg>