<svg height="1024" width="1024" xmlns="http://www.w3.org/2000/svg"><linearGradient gradientTransform="rotate(20.004 719.287 2330.923)" gradientUnits="userSpaceOnUse" id="a" x1="231.461" x2="-426.957" y1="1084.928" y2="300.35"><stop offset="0"/><stop offset=".192" stop-color="#090909"/><stop offset=".505" stop-color="#212121"/><stop offset=".899" stop-color="#494948"/><stop offset="1" stop-color="#545453"/></linearGradient><circle cx="512.001" cy="512" fill="url(#a)" r="512"/><linearGradient gradientTransform="translate(428.68 183.08)" gradientUnits="userSpaceOnUse" id="b" x1="-74.165" x2="445.712" y1="170.907" y2="690.784"><stop offset="0"/><stop offset=".483" stop-color="#090909" stop-opacity=".517"/><stop offset="1" stop-color="#181818" stop-opacity="0"/></linearGradient><path d="M684.609 994.026L443.487 752.904l-5.987-9.237V519.591l-27.016-8.565-57.984-58 1.25-70.526v-27.75S455 398 472 240l68.5-9.974 453.659 454.243s-12.631 33.665-21.249 50.679c0 0-11.133 22.501-18.366 34.563 0 0-11.915 19.896-17.896 28.595 0 0-7.914 11.761-13.886 19.636 0 0-21.48 27.179-27.008 33.34 0 0-16.074 17.597-22.133 23.546 0 0-17.813 17.188-24.992 23.335 0 0-13.354 11.424-19.823 16.435 0 0-9.938 7.717-14.861 11.262-4.924 3.545-23.689 16.476-31.743 21.364 0 0-26.945 15.813-36.122 20.398 0 0-15.397 7.696-22.446 10.823 0 0-13.388 6.019-22.212 9.435l-16.813 6.346z" fill="url(#b)"/><path d="M626.201 676.062c-10.991 2.064-23.188 3.907-34.961 3.468a78.86 78.86 0 01-8.726-.793c-6.702-.986-13.518-3.562-18.852-7.76-4.216-3.317-7.982-7.358-10.859-11.887-10.733-16.893-11.972-37.618-11.955-57.082.013-12.754-.019-25.509-.021-38.264-.002-17.061.013-34.117.007-51.176-.004-13.985-.01-27.973-.003-41.956.003-5.778.001-11.559.001-17.336l120.25-.083v-101.25l-120.582.083v-122h-78c-14 134-110 123-110 123v100h58c.001.157.007.315.007.476.026 9.832-.008 19.665-.016 29.497-.019 19.881-.009 39.764.021 59.646.034 22.246.056 44.498-.027 66.745-.152 40.97-1.942 80.139 15.908 118.125 12.85 27.345 34.006 42.99 61.9 53.282 37.316 13.771 77.291 15.647 116.501 10.668 11.219-1.424 22.37-3.361 33.452-5.604 3.006-.608 33.253-6.061 33.253-7.499V663.028c-14.758 5.307-29.862 10.136-45.298 13.034z" fill="#FFF"/></svg>